<svg width="84" height="100" viewBox="0 0 84 100" fill="none" xmlns="http://www.w3.org/2000/svg">
<path d="M44.8487 13.9146C41.9836 13.2021 39.0626 12.7355 36.1178 12.5201C33.1648 12.2452 30.2118 12.0979 27.3179 12.0586C24.3874 12.012 21.4564 12.1234 18.5378 12.3925C15.7117 12.6086 12.9325 13.2372 10.2893 14.2583C9.15032 14.6881 8.09706 15.3165 7.17878 16.1143C6.84768 16.4209 6.58306 16.7919 6.40119 17.2044C6.20811 17.6263 6.0883 18.0779 6.04685 18.5399C5.8303 20.2388 7.58234 22.6055 9.81674 24.2455C12.1492 25.9472 14.6731 27.3709 17.3369 28.4878C20.0243 29.6775 22.7982 30.6624 25.6347 31.4339V31.6205C22.6665 31.2405 19.7313 30.6365 16.8546 29.8135C13.9095 29.013 11.061 27.8934 8.35997 26.4747C6.91953 25.7113 5.59407 24.7493 4.4227 23.617C3.00693 22.2766 2.17316 20.4367 2.09972 18.4908C2.09407 17.477 2.30199 16.4733 2.70999 15.5448C3.13245 14.608 3.7577 13.7762 4.54081 13.1093C5.91867 12.0205 7.52274 11.2523 9.23603 10.8605C12.2648 10.1954 15.3579 9.86607 18.4591 9.87848C21.4636 9.86027 24.4669 10.0045 27.4558 10.3106C30.4153 10.6052 33.3682 11.0176 36.3146 11.5479C39.2576 12.0242 42.1552 12.7469 44.9766 13.7084L44.8487 13.9146Z" fill="white"/>
<path d="M19.9943 32.2489C22.8597 32.9582 25.7806 33.4215 28.7252 33.6336C31.6782 33.9086 34.6311 34.0657 37.5841 34.105C40.5048 34.151 43.426 34.0396 46.3347 33.7711C49.1541 33.5524 51.9263 32.9238 54.5636 31.9052C55.7123 31.4791 56.7732 30.8467 57.6937 30.0394C58.0239 29.7337 58.2913 29.3668 58.4811 28.9592C58.6834 28.5371 58.8037 28.0806 58.8355 27.6138C59.0422 25.9247 57.2901 23.558 55.0557 21.9181C52.7257 20.2153 50.2054 18.7884 47.5454 17.6659C44.8524 16.4818 42.0756 15.4972 39.2377 14.7199V14.5234C42.2033 14.9048 45.1354 15.5121 48.008 16.3402C50.9515 17.1415 53.7995 18.2577 56.5027 19.6692C57.9407 20.4365 59.2656 21.3981 60.44 22.5269C61.8563 23.871 62.69 25.7141 62.763 27.6629C62.7645 28.6743 62.5637 29.6759 62.1723 30.609C61.7385 31.5415 61.1072 32.369 60.3218 33.0346C58.955 34.1095 57.3695 34.8737 55.6758 35.2736C52.6454 35.9228 49.5522 36.2357 46.4528 36.2065C43.4514 36.2299 40.4511 36.0856 37.466 35.7744C34.513 35.4798 31.5601 35.0674 28.6071 34.5371C25.6733 34.0676 22.7852 33.3481 19.9746 32.3864L19.9943 32.2489Z" fill="white"/>
<path d="M36.3154 23.4901C36.3173 24.1828 36.1129 24.8605 35.7282 25.4371C35.3434 26.0137 34.7956 26.4633 34.1543 26.7289C33.513 26.9944 32.8071 27.0639 32.1261 26.9285C31.4451 26.7931 30.8198 26.459 30.3295 25.9685C29.8392 25.478 29.5061 24.8532 29.3723 24.1735C29.2385 23.4938 29.3101 22.7897 29.5781 22.1507C29.8461 21.5117 30.2983 20.9665 30.8774 20.5843C31.4565 20.2021 32.1363 20.0001 32.8307 20.004C33.7558 20.0066 34.6421 20.375 35.2953 21.0285C35.9486 21.682 36.3154 22.5673 36.3154 23.4901" fill="white"/>
<path d="M42.4177 37.857C38.308 39.2421 34.1167 40.3736 29.8676 41.2449C25.5441 42.1912 21.1334 42.6849 16.7072 42.718C14.3341 42.7759 11.9655 42.4814 9.67925 41.844C7.04982 41.1832 4.66122 39.7942 2.78902 37.8373C-0.990759 33.2709 -0.557702 26.878 1.88341 22.5767C3.04175 20.4799 4.5232 18.5778 6.27349 16.9399C7.90519 15.3705 9.65592 13.9292 11.5101 12.6288C15.0951 10.0824 18.9547 7.94462 23.0167 6.25548C31.0345 2.94431 39.4996 0.836276 48.1366 0V0.26515C39.6248 1.26656 31.3683 3.81259 23.7747 7.77762C20.0275 9.71136 16.5276 12.0886 13.3507 14.858C10.317 17.4748 8.02578 20.8409 6.70659 24.6193C6.20387 26.2424 6.07599 27.958 6.33254 29.6374C6.44602 30.415 6.66115 31.1743 6.97238 31.8961C7.11018 32.2594 7.30702 32.554 7.44483 32.8781L7.98619 33.8012C8.87166 35.194 10.1069 36.3315 11.5691 37.1008C13.3217 38.0038 15.1894 38.6645 17.1207 39.0649C21.2674 39.8048 25.4941 39.993 29.6904 39.6246C33.9727 39.3254 38.2249 38.6917 42.4078 37.7293L42.4177 37.857Z" fill="white"/>
<path d="M22.6037 9.53488C26.7102 8.17182 30.8944 7.05363 35.134 6.1862C39.4424 5.24909 43.8358 4.7555 48.2451 4.71316C50.6055 4.65281 52.9623 4.9306 55.2436 5.53806C57.863 6.17972 60.2499 7.54048 62.1338 9.46615C66.0022 13.9835 65.5691 20.4157 63.1182 24.6973C61.9555 26.7876 60.4632 28.6776 58.6986 30.2948C57.0658 31.8481 55.3151 33.273 53.462 34.5568C49.8737 37.0738 46.0141 39.182 41.9553 40.8418C33.9465 44.1101 25.4991 46.1847 16.8848 46.999V46.7437C25.3922 45.7585 33.6516 43.2502 41.2663 39.3393C45.0196 37.4178 48.5346 35.0646 51.7394 32.3276C54.7829 29.7433 57.0884 26.4032 58.4229 22.6449C58.9329 21.0368 59.0643 19.333 58.8068 17.666C58.6924 16.8916 58.467 16.1375 58.1375 15.427L57.6651 14.445C57.478 14.1504 57.3303 13.8361 57.1236 13.5415C56.214 12.1588 54.9633 11.0327 53.4916 10.2714C51.7298 9.4011 49.8643 8.75764 47.94 8.35646C43.7989 7.62516 39.5794 7.44027 35.3899 7.80653C31.1192 8.10541 26.8776 8.72917 22.7021 9.67236L22.6037 9.53488Z" fill="white"/>
<path d="M6.59082 96.2158C10.0688 96.2158 12.1357 94.1904 12.1357 90.9033V89.2847H6.65723V91.7085H8.74902L8.73242 91.833C8.60791 92.7876 7.81934 93.3438 6.67383 93.3438C5.12988 93.3438 4.12549 92.1318 4.12549 89.957V89.9487C4.12549 87.8237 5.00537 86.6782 6.49951 86.6782C7.51221 86.6782 8.26758 87.1597 8.5083 87.9565L8.5332 88.0396H11.9946L11.9863 87.9565C11.7456 85.5742 9.48779 83.8062 6.48291 83.8062C2.79736 83.8062 0.539551 86.064 0.539551 89.9902V89.9985C0.539551 93.9829 2.78906 96.2158 6.59082 96.2158ZM13.3603 96H16.8798V92.0654H18.0336L19.9262 96H23.8608L21.5863 91.5425C22.7485 90.978 23.5121 89.6333 23.5121 88.1392V88.1226C23.5121 85.4663 21.8354 84.022 18.7558 84.022H13.3603V96ZM16.8798 89.5835V86.6201H18.349C19.2787 86.6201 19.9262 87.2261 19.9262 88.0977V88.1143C19.9262 88.9941 19.2953 89.5835 18.349 89.5835H16.8798ZM30.514 96.2158C34.2411 96.2158 36.557 93.8335 36.557 90.0151V89.9985C36.557 86.1885 34.2328 83.8062 30.514 83.8062C26.8202 83.8062 24.4876 86.1802 24.4876 89.9985V90.0151C24.4876 93.8418 26.8036 96.2158 30.514 96.2158ZM30.514 93.3438C29.0365 93.3438 28.0736 92.082 28.0736 90.0151V89.9985C28.0736 87.9316 29.0448 86.6782 30.514 86.6782C32.0081 86.6782 32.971 87.9399 32.971 89.9985V90.0151C32.971 92.0571 32.033 93.3438 30.514 93.3438ZM43.0276 96.2158C46.2317 96.2158 48.3152 94.4478 48.3152 91.7334V84.022H44.7957V91.3848C44.7957 92.6465 44.1814 93.3438 43.0359 93.3438C41.8904 93.3438 41.2761 92.6465 41.2761 91.3848V84.022H37.7566V91.7334C37.7566 94.4644 39.865 96.2158 43.0276 96.2158ZM49.8054 96H53.3249V92.7295H55.1594C57.965 92.7295 59.7331 91.061 59.7331 88.4048V88.3882C59.7331 85.7319 57.965 84.022 55.1594 84.022H49.8054V96ZM54.321 86.6699C55.4831 86.6699 56.1804 87.2427 56.1804 88.3882V88.4048C56.1804 89.5503 55.4831 90.1313 54.321 90.1313H53.3249V86.6699H54.321Z" fill="white"/>
<path d="M0.830078 77H4.34961V65.022H0.830078V77ZM5.83977 77H9.3593V70.7744H9.4174L13.684 77H16.581V65.022H13.0614V71.1479H13.0033L8.76994 65.022H5.83977V77ZM20.7689 77H24.2884V67.811H27.4427V65.022H17.6146V67.811H20.7689V77ZM28.4763 77H36.9265V74.2109H31.9959V72.3101H36.6194V69.7202H31.9959V67.811H36.9265V65.022H28.4763V77ZM44.1608 77.2158C47.6388 77.2158 49.7057 75.1904 49.7057 71.9033V70.2847H44.2272V72.7085H46.319L46.3024 72.833C46.1779 73.7876 45.3893 74.3438 44.2438 74.3438C42.6999 74.3438 41.6955 73.1318 41.6955 70.957V70.9487C41.6955 68.8237 42.5754 67.6782 44.0695 67.6782C45.0822 67.6782 45.8376 68.1597 46.0783 68.9565L46.1032 69.0396H49.5646L49.5563 68.9565C49.3156 66.5742 47.0578 64.8062 44.0529 64.8062C40.3674 64.8062 38.1096 67.064 38.1096 70.9902V70.9985C38.1096 74.9829 40.3591 77.2158 44.1608 77.2158ZM50.9303 77H54.4498V73.0654H55.6036L57.4962 77H61.4308L59.1563 72.5425C60.3185 71.978 61.0821 70.6333 61.0821 69.1392V69.1226C61.0821 66.4663 59.4054 65.022 56.3258 65.022H50.9303V77ZM54.4498 70.5835V67.6201H55.919C56.8487 67.6201 57.4962 68.2261 57.4962 69.0977V69.1143C57.4962 69.9941 56.8653 70.5835 55.919 70.5835H54.4498ZM61.7671 77H65.4693L66.0918 74.6177H69.6778L70.3003 77H74.0025L70.0928 65.022H65.6768L61.7671 77ZM67.8516 67.8774H67.918L69.0303 72.1357H66.7393L67.8516 67.8774ZM74.9116 77H83.1293V74.2109H78.4311V65.022H74.9116V77Z" fill="white"/>
</svg>
